<svg xmlns="http://www.w3.org/2000/svg" viewBox="0 0 640 420">
  <rect width="640" height="420" rx="32" fill="#f5f8ff"/>
  <ellipse cx="320" cy="356" rx="210" ry="20" fill="#d8e2f6"/>
  <rect x="190" y="76" width="260" height="265" rx="26" fill="#222c38"/>
  <rect x="220" y="106" width="200" height="74" rx="13" fill="#0c151f"/>
  <rect x="240" y="125" width="92" height="34" rx="7" fill="#1d65b6"/>
  <g fill="#596777"><circle cx="250" cy="220" r="13"/><circle cx="300" cy="220" r="13"/><circle cx="350" cy="220" r="13"/><circle cx="400" cy="220" r="13"/><circle cx="250" cy="263" r="13"/><circle cx="300" cy="263" r="13"/><circle cx="350" cy="263" r="13"/><circle cx="400" cy="263" r="13"/></g>
  <rect x="260" y="292" width="120" height="34" rx="17" fill="#0a3d91"/>
  <path d="M320 135c-35 0-63 28-63 63 0 29 19 53 45 60" fill="none" stroke="#fff" stroke-width="8" stroke-linecap="round"/>
  <path d="M320 155c-24 0-43 19-43 43 0 17 10 32 24 39" fill="none" stroke="#8fc0ff" stroke-width="7" stroke-linecap="round"/>
  <path d="M320 177c-12 0-21 9-21 21 0 11 8 20 19 21" fill="none" stroke="#54a0ff" stroke-width="7" stroke-linecap="round"/>
  <text x="225" y="390" font-family="Arial,sans-serif" font-weight="700" font-size="25" fill="#0a3d91">Biometric Devices</text>
</svg>
