<svg xmlns="http://www.w3.org/2000/svg" viewBox="0 0 640 420">
  <rect width="640" height="420" rx="32" fill="#f5f8ff"/>
  <ellipse cx="320" cy="350" rx="230" ry="22" fill="#d8e2f6"/>
  <rect x="175" y="275" width="300" height="66" rx="12" fill="#202a35"/>
  <rect x="205" y="292" width="120" height="11" rx="5" fill="#0f141c"/>
  <circle cx="445" cy="309" r="7" fill="#2272ff"/>
  <g transform="translate(95 90)">
    <rect x="0" y="74" width="70" height="26" rx="10" fill="#d7dde5"/>
    <path d="M5 57h89l36 30H80L48 73H5z" fill="#e8edf2"/>
    <rect x="46" y="52" width="126" height="58" rx="18" fill="#ffffff" stroke="#c8d1dc" stroke-width="3"/>
    <circle cx="145" cy="81" r="23" fill="#0e1825"/>
    <circle cx="145" cy="81" r="12" fill="#2f5e9c"/>
    <circle cx="150" cy="75" r="4" fill="#83b9ff"/>
  </g>
  <g transform="translate(325 83)">
    <path d="M0 39h120v22H0z" fill="#e2e8ef"/>
    <path d="M12 61h96c-4 62-17 82-48 82S16 123 12 61z" fill="#ffffff" stroke="#cbd4de" stroke-width="3"/>
    <ellipse cx="60" cy="69" rx="30" ry="20" fill="#0f1824"/>
    <circle cx="60" cy="69" r="11" fill="#3169aa"/>
    <circle cx="66" cy="64" r="3" fill="#8ec3ff"/>
  </g>
  <g transform="translate(478 90)">
    <path d="M20 0h34v34H20z" fill="#dbe2e9"/>
    <path d="M37 34v28" stroke="#a8b4c1" stroke-width="7"/>
    <path d="M0 62h76v32H0z" fill="#e5ebf0"/>
    <circle cx="38" cy="89" r="30" fill="#101823"/>
    <circle cx="38" cy="89" r="12" fill="#2f67a5"/>
  </g>
  <text x="240" y="387" font-family="Arial,sans-serif" font-weight="700" font-size="25" fill="#0a3d91">CCTV Solutions</text>
</svg>
