<svg xmlns="http://www.w3.org/2000/svg" viewBox="0 0 640 420">
  <rect width="640" height="420" rx="32" fill="#f5f8ff"/>
  <ellipse cx="320" cy="354" rx="230" ry="22" fill="#d8e2f6"/>
  <g transform="translate(115 74)">
    <path d="M68 56c-16-16-36-25-55-17C-11 50-4 91 19 132c24 43 60 79 102 103 41 23 82 30 94 6 8-19-1-39-17-55l-34-34c-13-13-31-13-43 0l-16 16c-22-14-42-34-56-56l16-16c13-12 13-30 0-43z" fill="#0a4db1"/>
    <rect x="233" y="34" width="177" height="236" rx="18" fill="#27313c"/>
    <rect x="257" y="58" width="129" height="50" rx="10" fill="#0c151e"/>
    <rect x="278" y="74" width="87" height="17" rx="5" fill="#267be1"/>
    <g fill="#758496"><circle cx="274" cy="146" r="13"/><circle cx="321" cy="146" r="13"/><circle cx="368" cy="146" r="13"/><circle cx="274" cy="190" r="13"/><circle cx="321" cy="190" r="13"/><circle cx="368" cy="190" r="13"/><circle cx="274" cy="234" r="13"/><circle cx="321" cy="234" r="13"/><circle cx="368" cy="234" r="13"/></g>
  </g>
  <text x="250" y="390" font-family="Arial,sans-serif" font-weight="700" font-size="25" fill="#0a3d91">PABX Solutions</text>
</svg>
