<svg xmlns="http://www.w3.org/2000/svg" viewBox="0 0 640 420">
  <defs>
    <linearGradient id="screen" x1="0" y1="0" x2="1" y2="1">
      <stop offset="0" stop-color="#0b4dbb"/><stop offset="1" stop-color="#0b1d4a"/>
    </linearGradient>
    <linearGradient id="body" x1="0" y1="0" x2="0" y2="1">
      <stop offset="0" stop-color="#2c3440"/><stop offset="1" stop-color="#10151c"/>
    </linearGradient>
  </defs>
  <rect width="640" height="420" rx="32" fill="#f5f8ff"/>
  <ellipse cx="330" cy="366" rx="245" ry="24" fill="#d8e2f6"/>
  <rect x="175" y="238" width="298" height="105" rx="14" fill="url(#body)"/>
  <rect x="196" y="259" width="258" height="40" rx="8" fill="#0b1118"/>
  <circle cx="425" cy="320" r="8" fill="#2272ff"/>
  <rect x="250" y="86" width="230" height="166" rx="18" fill="#111821"/>
  <rect x="266" y="102" width="198" height="133" rx="10" fill="url(#screen)"/>
  <rect x="283" y="120" width="45" height="96" rx="6" fill="#062a6d"/>
  <rect x="344" y="120" width="48" height="34" rx="6" fill="#27a55f"/>
  <rect x="400" y="120" width="48" height="34" rx="6" fill="#ff5a52"/>
  <rect x="344" y="164" width="104" height="10" rx="5" fill="#84a8ff"/>
  <rect x="344" y="184" width="76" height="10" rx="5" fill="#5578c4"/>
  <rect x="344" y="204" width="95" height="10" rx="5" fill="#5578c4"/>
  <rect x="345" y="252" width="38" height="24" rx="5" fill="#1c2530"/>
  <rect x="364" y="274" width="8" height="24" fill="#1c2530"/>
  <rect x="72" y="220" width="92" height="113" rx="12" fill="#202a35"/>
  <rect x="86" y="238" width="64" height="50" rx="7" fill="#0c1118"/>
  <path d="M99 222h38v18H99z" fill="#fff"/>
  <path d="M101 222h34l-7-32h-20z" fill="#f7f7f7"/>
  <path d="M510 195c20-22 56-22 74-5l-12 30c-17-7-31-4-42 8z" fill="#171d26"/>
  <rect x="543" y="214" width="18" height="88" rx="9" fill="#222d3a" transform="rotate(12 552 258)"/>
  <ellipse cx="555" cy="318" rx="48" ry="11" fill="#171d26"/>
  <rect x="548" y="296" width="15" height="27" rx="5" fill="#222d3a"/>
  <circle cx="553" cy="199" r="10" fill="#e3242b"/>
  <text x="214" y="326" font-family="Arial,sans-serif" font-weight="700" font-size="24" fill="#ffffff">POS Philippines</text>
</svg>
