<svg xmlns="http://www.w3.org/2000/svg" viewBox="0 0 640 420">
  <defs><linearGradient id="sky" x1="0" y1="0" x2="1" y2="1"><stop stop-color="#edf6ff"/><stop offset="1" stop-color="#ffffff"/></linearGradient></defs>
  <rect width="640" height="420" rx="32" fill="url(#sky)"/>
  <circle cx="510" cy="85" r="46" fill="#ffc92c"/>
  <g stroke="#ffc92c" stroke-width="8" stroke-linecap="round"><path d="M510 20v-12"/><path d="M510 162v-14"/><path d="M443 85h-14"/><path d="M591 85h-14"/><path d="M463 38l-10-10"/><path d="M565 141l-10-10"/><path d="M565 38l10-10"/><path d="M463 141l-10 10"/></g>
  <ellipse cx="320" cy="352" rx="230" ry="22" fill="#d8e2f6"/>
  <g transform="translate(78 132)">
    <path d="M0 155h420l45 130H44z" fill="#154e9f" stroke="#0d3978" stroke-width="5"/>
    <g stroke="#76a9e9" stroke-width="4"><path d="M45 168l44 106"/><path d="M105 164l44 112"/><path d="M165 160l44 118"/><path d="M225 158l44 120"/><path d="M285 157l44 121"/><path d="M345 156l44 122"/><path d="M405 156l36 111"/><path d="M22 197h432"/><path d="M31 232h435"/></g>
    <path d="M180 285v35M320 285v35" stroke="#747f8c" stroke-width="9"/>
  </g>
  <rect x="520" y="230" width="58" height="112" rx="8" fill="#303a45"/>
  <rect x="531" y="244" width="36" height="30" rx="4" fill="#2076d8"/>
  <text x="242" y="389" font-family="Arial,sans-serif" font-weight="700" font-size="25" fill="#0a3d91">Solar Systems</text>
</svg>
